<svg width="100" height="100" viewBox="0 0 100 100" fill="none" xmlns="http://www.w3.org/2000/svg">
<rect x="-1292" y="-265" width="1440" height="470" fill="#1C1C1C"/>
<rect x="-219" y="24" width="310" height="63" rx="31.5" fill="#212529"/>
<rect x="26" y="24" width="64.7529" height="63.2471" rx="31.6235" fill="#FFB742"/>
<path d="M68.3781 44.1451L47.561 56.1548C46.748 56.6219 46.8513 57.7537 47.6598 58.095L52.434 60.0981L65.3375 48.7262C65.5845 48.5061 65.9348 48.843 65.7237 49.099L54.9042 62.2809V65.8964C54.9042 66.9563 56.1842 67.374 56.813 66.606L59.665 63.1343L65.2611 65.4787C65.8989 65.7482 66.6265 65.3485 66.7432 64.6613L69.977 45.2589C70.1297 44.3517 69.1551 43.696 68.3781 44.1451Z" fill="#212529"/>
</svg>
